<svg xmlns="http://www.w3.org/2000/svg" viewBox="0 0 164.02 310">
    <title>Asset 2</title>
    <rect x="20.99" y="90" width="122" height="15" style="fill:#414141" />
    <path
        d="M126.87,209H37.11c-5,0-9.12-88.88-9.12-88.88A9.12,9.12,0,0,1,37.11,111h89.76a9.12,9.12,0,0,1,9.12,9.12S131.9,209,126.87,209Z"
        style="fill:#414141" />
    <path
        d="M141,117h0a22,22,0,0,1,22,22v39.16a8.84,8.84,0,0,1-8.84,8.84H141a0,0,0,0,1,0,0V117a0,0,0,0,1,0,0Z"
        transform="translate(12.16 -11.25) rotate(4.42)" style="fill:#414141" />
    <path
        d="M23,117h0a0,0,0,0,1,0,0v70a0,0,0,0,1,0,0H9.44A8.45,8.45,0,0,1,1,178.55V139a22,22,0,0,1,22-22Z"
        transform="translate(-11.13 1.29) rotate(-4.21)" style="fill:#414141" />
    <path d="M79,289H35a225.51,225.51,0,0,0,9-35.65A223.05,223.05,0,0,0,47,213H79Z"
        style="fill:#414141" />
    <path d="M86,289h44a223.39,223.39,0,0,1-12-76H86Z" style="fill:#414141" />
    <path
        d="M134.54,32.35C128.93,13.81,107.54,0,82,0S35,13.82,29.42,32.38A33.29,33.29,0,0,0,28,42V84H136V42A33.51,33.51,0,0,0,134.54,32.35Z"
        style="fill:#414141" />
    <path d="M32,294H79a0,0,0,0,1,0,0v16a0,0,0,0,1,0,0H20a0,0,0,0,1,0,0v-4A12,12,0,0,1,32,294Z"
        style="fill:#414141" />
    <path d="M86,294h59a0,0,0,0,1,0,0v16a0,0,0,0,1,0,0H98a12,12,0,0,1-12-12v-4A0,0,0,0,1,86,294Z"
        transform="translate(230.97 604) rotate(-180)" style="fill:#414141" />
    <circle cx="66.49" cy="56.5" r="13" style="fill:#fcff35" />
    <circle cx="98.49" cy="55.5" r="13" style="fill:#fcff35" />
    <line x1="98.99" y1="42" x2="98.49" y2="69.5"
        style="fill:none;stroke:#414141;stroke-miterlimit:10" />
    <line x1="85.49" y1="55.5" x2="111.49" y2="55.5"
        style="fill:none;stroke:#414141;stroke-miterlimit:10" />
    <line x1="53.49" y1="56.5" x2="79.49" y2="56.5"
        style="fill:none;stroke:#414141;stroke-miterlimit:10" />
    <path d="M23.84,205.54a9.49,9.49,0,1,0-13.22-.49L17,198.69Z" style="fill:#414141" />
    <path d="M152.84,205.54a9.49,9.49,0,1,0-13.22-.49l6.37-6.36Z" style="fill:#414141" />
</svg>